<svg width="20" height="17" viewBox="0 0 20 17" fill="none" xmlns="http://www.w3.org/2000/svg">
<path fill-rule="evenodd" clip-rule="evenodd" d="M18.6364 3H1.36364C0.61 3 0 2.328 0 1.5C0 0.672 0.61 0 1.36364 0H18.6364C19.3891 0 20 0.672 20 1.5C20 2.328 19.3891 3 18.6364 3ZM1.36364 7H18.6364C19.3891 7 20 7.672 20 8.5C20 9.328 19.3891 10 18.6364 10H1.36364C0.61 10 0 9.328 0 8.5C0 7.672 0.61 7 1.36364 7ZM18.6364 14H1.36364C0.61 14 0 14.672 0 15.5C0 16.328 0.61 17 1.36364 17H18.6364C19.3891 17 20 16.328 20 15.5C20 14.672 19.3891 14 18.6364 14Z" fill="#1F2022"/>
</svg>
