<svg width="20" height="16" viewBox="0 0 20 16" fill="none" xmlns="http://www.w3.org/2000/svg">
<path opacity="0.24" fill-rule="evenodd" clip-rule="evenodd" d="M1.81377 0C0.818072 0 0 0.793984 0 1.77341V14.2266C0 15.2066 0.814396 16 1.819 16H18.181C19.185 16 20 15.2042 20 14.2225V4.44412C20 3.4608 19.1843 2.66667 18.1781 2.66667H10.0034L8.71574 0.742815C8.441 0.332343 7.81071 0 7.30762 0H1.81377ZM18.181 14.2222L1.81818 14.2266L1.81377 1.77778L7.27273 1.78212L8.48211 3.64019C8.818 4.14203 9.39005 4.44444 10.0034 4.44444L18.1818 4.44412L18.181 14.2222Z" fill="black"/>
</svg>
