<svg width="18" height="18" viewBox="0 0 18 18" fill="none" xmlns="http://www.w3.org/2000/svg">
<path opacity="0.24" fill-rule="evenodd" clip-rule="evenodd" d="M3.9056 1C3.9056 0.447715 4.35471 0 4.901 0H12.9102C13.4599 0 13.9056 0.443865 13.9056 1C13.9056 1.55228 13.4565 2 12.9102 2H4.901C4.35125 2 3.9056 1.55614 3.9056 1ZM0.0101027 8.0949L0.811023 16.1041C0.917267 17.1665 1.83603 18 2.90122 18H14.91C15.9712 18 16.8943 17.1632 17.0002 16.1041L17.8011 8.0949C17.9152 6.95379 17.0495 6 15.9047 6H1.90647C0.759323 6 -0.103812 6.95576 0.0101027 8.0949ZM2.01101 8.00421L15.7998 8.0079L14.9056 16H2.9056L2.01101 8.00421ZM2.90122 3C2.35555 3 1.9056 3.44772 1.9056 4C1.9056 4.55614 2.35136 5 2.90122 5H14.91C15.4557 5 15.9056 4.55228 15.9056 4C15.9056 3.44386 15.4598 3 14.91 3H2.90122Z" fill="black"/>
</svg>
