<svg width="21" height="21" viewBox="0 0 21 21" fill="none" xmlns="http://www.w3.org/2000/svg">
<path opacity="0.24" fill-rule="evenodd" clip-rule="evenodd" d="M0 2.5C0 3.88071 1.11929 5 2.5 5C3.88071 5 5 3.88071 5 2.5C5 1.11929 3.88071 0 2.5 0C1.11929 0 0 1.11929 0 2.5ZM2.5 13C1.11929 13 0 11.8807 0 10.5C0 9.11929 1.11929 8 2.5 8C3.88071 8 5 9.11929 5 10.5C5 11.8807 3.88071 13 2.5 13ZM2.5 21C1.11929 21 0 19.8807 0 18.5C0 17.1193 1.11929 16 2.5 16C3.88071 16 5 17.1193 5 18.5C5 19.8807 3.88071 21 2.5 21ZM10.5 21C9.11929 21 8 19.8807 8 18.5C8 17.1193 9.11929 16 10.5 16C11.8807 16 13 17.1193 13 18.5C13 19.8807 11.8807 21 10.5 21ZM16 18.5C16 19.8807 17.1193 21 18.5 21C19.8807 21 21 19.8807 21 18.5C21 17.1193 19.8807 16 18.5 16C17.1193 16 16 17.1193 16 18.5ZM10.5 13C9.11929 13 8 11.8807 8 10.5C8 9.11929 9.11929 8 10.5 8C11.8807 8 13 9.11929 13 10.5C13 11.8807 11.8807 13 10.5 13ZM8 2.5C8 3.88071 9.11929 5 10.5 5C11.8807 5 13 3.88071 13 2.5C13 1.11929 11.8807 0 10.5 0C9.11929 0 8 1.11929 8 2.5ZM18.5 13C17.1193 13 16 11.8807 16 10.5C16 9.11929 17.1193 8 18.5 8C19.8807 8 21 9.11929 21 10.5C21 11.8807 19.8807 13 18.5 13ZM16 2.5C16 3.88071 17.1193 5 18.5 5C19.8807 5 21 3.88071 21 2.5C21 1.11929 19.8807 0 18.5 0C17.1193 0 16 1.11929 16 2.5Z" fill="black"/>
</svg>
