<svg width="14" height="13" viewBox="0 0 14 13" fill="none" xmlns="http://www.w3.org/2000/svg">
<path opacity="0.24" fill-rule="evenodd" clip-rule="evenodd" d="M0 1.26715C0 0.567738 0.596816 0.00196838 1.33303 0.00196838C1.33303 0.00196838 8.04913 -0.0024662 9.00292 0.00197601C11.0812 -0.019372 12.3926 0.545282 12.9582 2.00179C13.11 2.37423 13.9501 5.58311 13.9574 5.61899C14.1966 6.68291 13.4012 7.61217 12.2412 7.61217L9.83527 7.61232C9.64957 7.61233 9.5284 7.75151 9.5647 7.92389C9.5647 7.92389 9.74339 8.76794 9.78223 8.97716C9.92755 9.76005 10.0069 10.3756 9.99953 10.7934C10.012 11.4535 9.63906 12.0073 9.04973 12.4442C8.73233 12.6795 8.24694 12.8986 8.24694 12.8986C7.74148 13.1411 7.13599 12.9317 6.90137 12.4493C6.90137 12.4493 4.98706 8.48833 4.82791 8.18587C4.66876 7.88342 4.25203 7.61197 3.88249 7.61197H1.33303C0.597467 7.61197 0 7.04553 0 6.34679V1.26715ZM9.01732 1.27024C10.4976 1.25503 11.231 1.53944 11.6047 2.22155H11.3349C10.9656 2.22155 10.6663 2.50304 10.6663 2.85572C10.6663 3.20596 10.9618 3.48989 11.3349 3.48989H12.0027C12.0577 3.69099 12.1167 3.90704 12.1758 4.12405H11.6682C11.2989 4.12405 10.9996 4.40554 10.9996 4.75822C10.9996 5.10846 11.2951 5.39239 11.6682 5.39239H12.5203C12.5978 5.67858 12.6492 5.8688 12.6517 5.87862C12.715 6.15702 12.5544 6.34383 12.2411 6.34383L9.83518 6.34398C8.81064 6.34405 8.05528 7.21323 8.25766 8.17429C8.26457 8.20694 8.45663 9.12967 8.46926 9.19771C8.60705 9.94001 8.67174 10.4704 8.66643 10.7722L8.66646 10.8163C8.67005 11.0056 8.54896 11.2074 8.23018 11.4437C8.19435 11.4703 7.95995 11.6053 7.95995 11.6053L6.03797 7.65331C5.68177 6.92091 4.84873 6.39194 3.99985 6.34677V1.26772C6.11497 1.26825 8.75851 1.26912 9.01732 1.27024ZM2.66657 6.34364H1.33303L1.33328 1.26715L2.66657 1.26741V6.34364Z" fill="black"/>
</svg>
